<svg version="1.1" xmlns="http://www.w3.org/2000/svg" x="0px" y="0px" viewBox="0 0 512 512" style="enable-background:new 0 0 512 512" xml:space="preserve">
  <path d="M368 224c-79.392 0-144 64.608-144 144s64.608 144 144 144 144-64.608 144-144-64.608-144-144-144zm59.328 203.328C424.192 430.432 420.096 432 416 432s-8.192-1.568-11.328-4.672l-48-48C353.696 376.32 352 372.256 352 368v-64c0-8.832 7.168-16 16-16s16 7.168 16 16v57.376l43.328 43.328c6.24 6.24 6.24 16.352 0 22.624z"/>
  <path d="M204 304.608c-1.184-1.344-2.144-2.88-3.424-4.16L160 259.904l-40.576 40.576C104.32 315.552 96 335.616 96 357.024v27.008h96.8c-.48-5.28-.8-10.624-.8-16.032 0-22.368 4.352-43.68 12-63.392z"/>
  <path d="M96 64v26.976c0 21.344 8.32 41.44 23.424 56.576L160 188.128l40.576-40.576C215.68 132.448 224 112.352 224 90.976V64H96z"/>
  <path d="M304 0H16C7.168 0 0 7.2 0 16c0 8.864 7.168 16 16 16h16v58.976C32 129.44 46.976 165.6 74.176 192.8l31.2 31.2-31.2 31.2C46.976 282.432 32 318.56 32 357.024V416H16c-8.832 0-16 7.168-16 16s7.168 16 16 16l195.424-.032c-5.216-10.144-9.44-20.832-12.608-32L64 416v-58.976c0-29.92 11.648-58.016 32.8-79.2l42.528-42.496C142.304 232.32 144 228.256 144 224c0-4.224-1.696-8.32-4.672-11.328L96.8 170.176c-21.152-21.152-32.8-49.28-32.8-79.2V32h192v58.976c0 29.92-11.648 58.016-32.8 79.2l-42.528 42.528C177.696 215.712 176 219.776 176 224c0 4.256 1.696 8.32 4.672 11.328l38.752 38.72c5.792-9.12 12.384-17.632 19.712-25.536L214.624 224l31.2-31.232C273.024 165.6 288 129.44 288 90.976V32h16c8.832 0 16-7.168 16-16s-7.168-16-16-16z"/>
</svg>
