<svg version="1.1" xmlns="http://www.w3.org/2000/svg" x="0px" y="0px" viewBox="0 0 512 512" style="enable-background:new 0 0 512 512" xml:space="preserve">
  <path d="M184.698 208.046c-16.869 0-30.593 13.724-30.593 30.593s13.724 30.593 30.593 30.593 30.593-13.724 30.593-30.593-13.724-30.593-30.593-30.593zm0 46.185c-8.598 0-15.592-6.994-15.592-15.592s6.994-15.592 15.592-15.592c8.597 0 15.592 6.994 15.592 15.592 0 8.597-6.995 15.592-15.592 15.592z"/>
  <path d="M264.457 208.046c-16.869 0-30.594 13.724-30.594 30.593s13.725 30.593 30.594 30.593 30.593-13.724 30.593-30.593-13.724-30.593-30.593-30.593zm0 46.185c-8.599 0-15.593-6.994-15.593-15.592s6.995-15.592 15.593-15.592 15.592 6.994 15.592 15.592-6.995 15.592-15.592 15.592z"/>
  <path d="M344.216 208.046c-16.869 0-30.593 13.724-30.593 30.593s13.724 30.593 30.593 30.593 30.593-13.724 30.593-30.593-13.725-30.593-30.593-30.593zm0 46.185c-8.598 0-15.592-6.994-15.592-15.592s6.995-15.592 15.592-15.592c8.597 0 15.592 6.994 15.592 15.592s-6.995 15.592-15.592 15.592z"/>
  <path d="M184.698 282.671c-16.869 0-30.593 13.724-30.593 30.593s13.724 30.593 30.593 30.593 30.593-13.724 30.593-30.593-13.724-30.593-30.593-30.593zm0 46.185c-8.598 0-15.592-6.994-15.592-15.592s6.994-15.592 15.592-15.592c8.597 0 15.592 6.994 15.592 15.592s-6.995 15.592-15.592 15.592z"/>
  <path d="M344.216 282.671c-16.869 0-30.593 13.724-30.593 30.593s13.724 30.593 30.593 30.593 30.593-13.724 30.593-30.593c-.001-16.869-13.725-30.593-30.593-30.593zm0 46.185c-8.598 0-15.592-6.994-15.592-15.592s6.995-15.592 15.592-15.592c8.597 0 15.592 6.994 15.592 15.592-.001 8.598-6.995 15.592-15.592 15.592z"/>
  <path d="M264.457 282.671c-16.869 0-30.594 13.724-30.594 30.593s13.725 30.593 30.594 30.593 30.593-13.724 30.593-30.593-13.724-30.593-30.593-30.593zm0 46.185c-8.599 0-15.593-6.994-15.593-15.592s6.995-15.592 15.593-15.592 15.592 6.994 15.592 15.592-6.995 15.592-15.592 15.592z"/>
  <path d="M264.457 357.296c-16.869 0-30.593 13.725-30.593 30.594s13.724 30.593 30.593 30.593 30.593-13.724 30.593-30.593-13.724-30.594-30.593-30.594zm0 46.185c-8.599 0-15.593-6.994-15.593-15.592.001-8.597 6.995-15.593 15.593-15.593s15.592 6.994 15.592 15.593c0 8.598-6.995 15.592-15.592 15.592z"/>
  <path d="M184.698 357.296c-16.869 0-30.593 13.725-30.593 30.594s13.724 30.593 30.593 30.593 30.593-13.724 30.593-30.593-13.724-30.594-30.593-30.594zm0 46.185c-8.598 0-15.592-6.994-15.592-15.592s6.994-15.593 15.592-15.593c8.597 0 15.592 6.994 15.592 15.593-.001 8.598-6.995 15.592-15.592 15.592z"/>
  <path d="M115.548 238.64l11.026-11.026c2.929-2.929 2.929-7.677-.001-10.607-2.928-2.928-7.677-2.929-10.607.001l-11.025 11.025-11.025-11.025c-2.929-2.929-7.678-2.93-10.607-.001-2.93 2.93-2.93 7.678-.001 10.607l11.026 11.026-11.026 11.026c-2.931 2.928-2.931 7.676-.001 10.607 1.464 1.464 3.384 2.196 5.303 2.196s3.839-.732 5.304-2.197l11.025-11.025 11.025 11.025c1.465 1.465 3.384 2.197 5.304 2.197 1.919 0 3.839-.732 5.303-2.196 2.93-2.93 2.93-7.678.001-10.607l-11.024-11.026z"/>
  <path d="M115.548 313.265l11.026-11.026c2.929-2.929 2.929-7.677-.001-10.607-2.928-2.928-7.677-2.929-10.607.001l-11.025 11.025-11.025-11.025c-2.929-2.93-7.678-2.929-10.607-.001-2.93 2.93-2.93 7.678-.001 10.607l11.026 11.026-11.026 11.026c-2.931 2.928-2.931 7.676-.001 10.607 1.464 1.464 3.384 2.196 5.303 2.196s3.839-.732 5.304-2.197l11.025-11.025 11.025 11.025c1.465 1.465 3.384 2.197 5.304 2.197 1.919 0 3.839-.732 5.303-2.196 2.93-2.93 2.93-7.678.001-10.607l-11.024-11.026z"/>
  <path d="M126.573 398.913l-11.025-11.025 11.025-11.025c2.927-2.929 2.927-7.677-.002-10.608-2.93-2.928-7.678-2.928-10.608 0l-11.025 11.025-11.025-11.025c-2.93-2.928-7.678-2.928-10.608 0-2.929 2.93-2.929 7.678 0 10.608l11.025 11.025-11.025 11.025c-2.929 2.93-2.929 7.678 0 10.608 1.465 1.464 3.385 2.196 5.304 2.196 1.919 0 3.839-.732 5.304-2.196l11.025-11.025 11.025 11.025c1.465 1.464 3.385 2.196 5.304 2.196s3.839-.732 5.304-2.196c2.931-2.931 2.931-7.679.002-10.608z"/>
  <path d="M511.569 421.227l-20.455-107.645c-.773-4.069-4.708-6.741-8.77-5.968-4.069.773-6.741 4.699-5.968 8.77l20.455 107.645c1.144 6.025-3.943 11.712-10.872 11.712h-110.99l71.99-71.989c1.317-1.317 2.196-3.241 2.196-5.304V173.133l20.569 108.248c.773 4.069 4.703 6.742 8.769 5.968 4.069-.773 6.741-4.699 5.968-8.77L449.106 92.522c-.509-11.069-9.647-19.923-20.838-19.923h-65.73V48.482c0-4.143-3.357-7.5-7.5-7.5s-7.5 3.357-7.5 7.5v24.116h-50.23V48.482c0-4.143-3.357-7.5-7.5-7.5s-7.5 3.357-7.5 7.5v24.116h-50.231V48.482c0-4.143-3.357-7.5-7.5-7.5s-7.5 3.357-7.5 7.5v24.116h-50.23V48.482c0-4.143-3.357-7.5-7.5-7.5s-7.5 3.357-7.5 7.5v24.116h-50.23V48.482c0-4.143-3.357-7.5-7.5-7.5s-7.5 3.357-7.5 7.5v24.116h-65.73C9.37 72.599 0 81.968 0 93.486v356.646c0 11.517 9.37 20.886 20.887 20.886h186.19c4.143 0 7.5-3.357 7.5-7.5s-3.357-7.5-7.5-7.5H20.887c-3.245 0-5.886-2.64-5.886-5.885V169.981h419.154v180.964h-84.186c-11.517 0-20.886 9.37-20.886 20.887v84.185h-87.005c-4.143 0-7.5 3.357-7.5 7.5s3.357 7.5 7.5 7.5h94.505c1.935 0 3.875-.767 5.304-2.196l18.08-18.08H485.96c16.29 0 28.523-14.182 25.609-29.514zM15.001 154.98V93.486c0-3.245 2.641-5.886 5.886-5.886h65.73v33.69c0 4.143 3.357 7.5 7.5 7.5s7.5-3.357 7.5-7.5V87.6h50.23v33.69c0 4.143 3.357 7.5 7.5 7.5s7.5-3.357 7.5-7.5V87.6h50.23v33.69c0 4.143 3.357 7.5 7.5 7.5s7.5-3.357 7.5-7.5V87.6h50.231v33.69c0 4.143 3.357 7.5 7.5 7.5s7.5-3.357 7.5-7.5V87.6h50.23v33.69c0 4.143 3.357 7.5 7.5 7.5s7.5-3.357 7.5-7.5V87.6h65.73c3.245 0 5.886 2.641 5.886 5.886v61.495H15.001zm329.082 290.43v-73.577c0-3.245 2.64-5.886 5.885-5.886h73.578c-7.505 7.506-71.942 71.942-79.463 79.463z"/>
</svg>
