<svg version="1.1" xmlns="http://www.w3.org/2000/svg" x="0px" y="0px" viewBox="0 0 512 512" style="enable-background:new 0 0 512 512" xml:space="preserve">
  <path d="M398.957 355.402c-.002-.001-.004-.003-.007-.004-7.975-5.173-14.392-7.628-15.912-8.174l-46.28-19.286-32.629-21.532c-.314-.208-.641-.381-.972-.54v-13.951c24.638-12.301 42.487-36.218 46.339-64.536 19.865-1.608 35.541-18.277 35.541-38.549 0-10.031-3.838-19.181-10.12-26.062V113.26C374.919 50.807 324.112 0 261.661 0h-8.767c-62.446 0-113.25 50.807-113.25 113.257v48.955c-6.59 6.941-10.647 16.311-10.647 26.615 0 20.272 15.676 36.941 35.541 38.549 3.853 28.319 21.703 52.236 46.342 64.536v13.047l-34.011 22.442c-.461.102-.92.238-1.371.426l-46.534 19.392c-2.327.833-16.002 6.088-29.579 18.91-13.44 12.692-29.461 35.528-29.461 72.25v65.485c0 4.49 3.638 8.131 8.129 8.131h96.024c4.49 0 8.129-3.638 8.129-8.129 0-4.49-3.638-8.129-8.129-8.129h-25.041v-60.335c0-4.49-3.638-8.129-8.129-8.129s-8.129 3.638-8.129 8.129v60.335H86.183v-57.356c0-58.562 46.342-75.194 48.286-75.864.182-.062.361-.128.538-.202l38.763-16.154 41.9 149.577h-16.152c-4.49 0-8.129 3.638-8.129 8.129s3.638 8.129 8.129 8.129h26.84c.009 0 .017.002.027.002.011 0 .022-.002.031-.002h61.345c.011 0 .022.002.031.002.009 0 .017-.002.027-.002h146.127c4.49 0 8.129-3.656 8.129-8.145V438.38c-.001-47.845-27.012-72.524-43.118-82.978zm-75.326-16.65l-24.485 50.325-30.372-22.354 32.11-33.331c1.783-1.85 2.508-4.326 2.201-6.689.043-.339.073-.683.073-1.033v-.426l20.473 13.508zm-49.389 52.179l-6.387 17.01h-21.893v.001l-7.187-17.155 17.635-12.979 17.832 13.123zm-47.227-63.898c.075-.444.124-.898.124-1.365v-27.625c6.885 1.808 14.105 2.778 21.55 2.778h16.665c7.444 0 14.663-.97 21.548-2.777v26.428l-30.263 31.414-29.624-28.853zm141.767-138.205c-.001 11.019-7.995 20.188-18.484 22.061v-44.125c10.489 1.872 18.484 11.043 18.484 22.064zm-205.043 22.061c-10.489-1.873-18.484-11.041-18.484-22.061 0-11.022 7.994-20.192 18.484-22.065v44.126zm8.161-68.567h-.035c-.28 0-.556.014-.829.042-.086.009-.168.027-.254.039-.185.025-.371.048-.552.085-.117.024-.229.06-.344.088-.145.037-.292.067-.434.112-.132.041-.259.094-.388.141-.119.043-.241.081-.357.13-.148.063-.289.137-.434.208-.091.046-.186.085-.276.133-.14.076-.273.164-.409.247-.087.054-.177.102-.261.159-.129.087-.249.184-.373.277-.083.064-.171.122-.253.189-.112.091-.214.192-.32.289-.086.078-.176.153-.258.234-.098.098-.188.204-.28.307-.081.09-.167.176-.244.269-.086.103-.161.214-.242.321-.076.102-.156.199-.228.305-.07.104-.131.215-.197.322-.07.116-.146.228-.211.347-.057.106-.105.218-.158.326-.062.128-.129.253-.184.384-.046.106-.08.218-.12.326-.052.14-.108.276-.154.419-.035.109-.059.224-.088.336-.039.146-.082.292-.114.441-.025.118-.037.241-.056.36-.024.147-.052.294-.068.444-.013.126-.014.255-.021.382-.007.116-.017.231-.02.349-2.706.275-5.327.836-7.841 1.642v-38.719c0-53.483 43.511-96.997 96.993-96.997h8.767c53.487 0 97 43.514 97 97v38.898c-2.674-.901-5.472-1.526-8.369-1.821 0-.034-.004-.067-.005-.101-.004-.179-.011-.358-.027-.534-.01-.107-.027-.212-.041-.319-.021-.155-.041-.31-.07-.464-.025-.129-.056-.255-.088-.382-.03-.126-.06-.251-.096-.375-.042-.144-.092-.285-.142-.426-.037-.103-.072-.206-.113-.307-.06-.148-.127-.294-.195-.438-.043-.091-.085-.182-.131-.271-.074-.141-.153-.277-.234-.414-.053-.09-.106-.181-.163-.269-.081-.125-.167-.245-.255-.365-.068-.094-.137-.189-.209-.28-.085-.105-.172-.206-.261-.308-.087-.099-.172-.196-.263-.29-.085-.088-.173-.17-.261-.254-.103-.098-.207-.194-.315-.286-.089-.075-.181-.146-.273-.218-.115-.089-.229-.178-.348-.26-.1-.069-.203-.133-.306-.198-.117-.074-.234-.147-.355-.216-.119-.067-.244-.128-.366-.189-.111-.054-.219-.111-.333-.16-.146-.065-.297-.12-.449-.177-.098-.036-.193-.075-.293-.107-.168-.055-.339-.1-.512-.144-.073-.018-.143-.044-.217-.061-31.812-7.236-41.411-47.307-41.501-47.695-.705-3.115-3.17-5.529-6.299-6.168-3.129-.643-6.343.61-8.216 3.2-36.155 49.981-114.76 50.462-116.044 50.462h-.007zm8.097 73.554v-57.579c20.783-1.277 76.003-8.193 111.522-45.373 6.127 14.414 18.815 35.462 42.521 43.641v59.311c0 37.875-30.813 68.689-68.686 68.689h-16.665c-37.878-.001-68.692-30.815-68.692-68.689zm30.884 108.563v1.23c0 .861.137 1.69.384 2.468-.893 2.835-.202 6.055 2.072 8.271l30.946 30.142-30.609 22.528-24.484-50.325 21.691-14.314zm13.368 141.656l-15.942-56.912c.127.038.25.085.379.116.644.158 1.296.236 1.947.236 1.717 0 3.409-.544 4.818-1.582l9.852-7.25 6.856 16.367-7.91 49.025zm11.685 29.645l11.542-71.54h19.087l11.541 71.54h-42.17zm45.92-78.832l5.994-15.962 9.522 7.008c1.41 1.038 3.101 1.582 4.818 1.582.65 0 1.303-.078 1.947-.236.675-.167 1.314-.426 1.913-.75l-16.207 57.857-7.987-49.499zm143.963 78.832h-46.599v-60.335c0-4.49-3.638-8.129-8.129-8.129-4.49 0-8.129 3.638-8.129 8.129v60.335h-64.454l41.671-148.766 36.815 15.342c.158.066.348.138.51.193.054.02 5.489 1.915 12.6 6.528.001.001.002.001.003.002 16.292 10.576 35.712 31.191 35.712 69.344v57.357z"/>
  <path d="M266.527 223.303c4.49 0 8.129-3.638 8.129-8.129 0-4.49-3.638-8.129-8.129-8.129h-6v-18.823c0-4.489-3.638-8.129-8.129-8.129-4.49 0-8.129 3.64-8.129 8.129v26.952c0 4.49 3.638 8.129 8.129 8.129h14.129z"/>
</svg>
